# xmcd
#
# Track frame offsets:
#	150
#	17119
#	28444
#	41184
#	58979
#	83104
#	102484
#	115784
#	135067
#	156622
#	173589
#	195474
#	210199
#	229857
#	255727
#	273782
#	290722
#
# Disc length: 3991 seconds
#
# Revision: 1
# Processed by: cddbd v1.5.1PL2 Copyright (c) Steve Scherf et al.
# Submitted via: SynApp - FreeCDDB Version: 2.2
#
DISCID=f10f9511
DTITLE=Various Artist - Born With The Blues
DYEAR=1999
DGENRE=Blues
TTITLE0=Billy Boy Arnold With Tony McPhee - Catfisch
TTITLE1=Ike Turner - Ho Ho
TTITLE2=King Biscuit Boy With The Ronnie Hawkins Band - Get it right
TTITLE3=Muddy Waters - Walking Blues
TTITLE4=Buddy Guy And Junior Wells - Country Girl
TTITLE5=U.P. Wilson With Paul Orta And The Kingpins - Hideaway
TTITLE6=Sonny Boy Williamson - Bye bye Bird
TTITLE7=Byther Smith - Tell me how you like it
TTITLE8=Carey Bell And Buster Benton - Born wiht the Blues
TTITLE9=John Lee Hooker - Goin´Mad Blues
TTITLE10=The Mighty Houserockers - Blue Light
TTITLE11=Big Walter "Shaky" Horton - Easy
TTITLE12=Fenton Robinson - You dont know what love is
TTITLE13=Luther Allison - Your gonna need me
TTITLE14=Todd Sharpville And Paul Lamb - All nite long
TTITLE15=Sunnyland Slim And Lacy Gibson - Bessie Mae
TTITLE16=Earl Hooker - The Foxtrot
EXTD=
EXTT0=
EXTT1=
EXTT2=
EXTT3=
EXTT4=
EXTT5=
EXTT6=
EXTT7=
EXTT8=
EXTT9=
EXTT10=
EXTT11=
EXTT12=
EXTT13=
EXTT14=
EXTT15=
EXTT16=
PLAYORDER=
